<svg width="19" height="18" viewBox="0 0 19 18" fill="none" xmlns="http://www.w3.org/2000/svg">
<path d="M7.60244 11.46C7.45994 11.46 7.31744 11.4075 7.20494 11.295C6.58994 10.68 6.25244 9.8625 6.25244 9C6.25244 7.2075 7.70744 5.7525 9.49994 5.7525C10.3624 5.7525 11.1799 6.09 11.7949 6.705C11.8999 6.81 11.9599 6.9525 11.9599 7.1025C11.9599 7.2525 11.8999 7.395 11.7949 7.5L7.99994 11.295C7.88744 11.4075 7.74494 11.46 7.60244 11.46ZM9.49994 6.8775C8.32994 6.8775 7.37744 7.83 7.37744 9C7.37744 9.375 7.47494 9.735 7.65494 10.05L10.5499 7.155C10.2349 6.975 9.87494 6.8775 9.49994 6.8775Z" fill="#09080D"/>
<path d="M4.69988 13.8825C4.57238 13.8825 4.43738 13.8375 4.33238 13.7475C3.52988 13.065 2.80988 12.225 2.19488 11.25C1.39988 10.0125 1.39988 7.99499 2.19488 6.74999C4.02488 3.88499 6.68738 2.23499 9.49988 2.23499C11.1499 2.23499 12.7774 2.80499 14.2024 3.87749C14.4499 4.06499 14.5024 4.41749 14.3149 4.66499C14.1274 4.91249 13.7749 4.96499 13.5274 4.77749C12.2974 3.84749 10.9024 3.35999 9.49988 3.35999C7.07738 3.35999 4.75988 4.81499 3.13988 7.35749C2.57738 8.23499 2.57738 9.76499 3.13988 10.6425C3.70238 11.52 4.34738 12.2775 5.05988 12.8925C5.29238 13.095 5.32238 13.4475 5.11988 13.6875C5.01488 13.815 4.85738 13.8825 4.69988 13.8825Z" fill="#09080D"/>
<path d="M9.49993 15.765C8.50242 15.765 7.52742 15.5625 6.58992 15.165C6.30492 15.045 6.16992 14.715 6.28992 14.43C6.40992 14.145 6.73992 14.01 7.02492 14.13C7.81992 14.4675 8.65242 14.64 9.49242 14.64C11.9149 14.64 14.2324 13.185 15.8524 10.6425C16.4149 9.765 16.4149 8.235 15.8524 7.3575C15.6199 6.99 15.3649 6.6375 15.0949 6.3075C14.8999 6.0675 14.9374 5.715 15.1774 5.5125C15.4174 5.3175 15.7699 5.3475 15.9724 5.595C16.2649 5.955 16.5499 6.345 16.8049 6.75C17.5999 7.9875 17.5999 10.005 16.8049 11.25C14.9749 14.115 12.3124 15.765 9.49993 15.765Z" fill="#09080D"/>
<path d="M10.0177 12.2025C9.75518 12.2025 9.51518 12.015 9.46268 11.745C9.40268 11.4375 9.60518 11.145 9.91268 11.0925C10.7377 10.9425 11.4277 10.2525 11.5777 9.42751C11.6377 9.12001 11.9302 8.92501 12.2377 8.97751C12.5452 9.03751 12.7477 9.33002 12.6877 9.63752C12.4477 10.935 11.4127 11.9625 10.1227 12.2025C10.0852 12.195 10.0552 12.2025 10.0177 12.2025Z" fill="#09080D"/>
<path d="M2.00008 17.0625C1.85758 17.0625 1.71508 17.01 1.60258 16.8975C1.38508 16.68 1.38508 16.32 1.60258 16.1025L7.20508 10.5C7.42258 10.2825 7.78258 10.2825 8.00008 10.5C8.21758 10.7175 8.21758 11.0775 8.00008 11.295L2.39758 16.8975C2.28508 17.01 2.14258 17.0625 2.00008 17.0625Z" fill="#09080D"/>
<path d="M11.3975 7.66499C11.255 7.66499 11.1125 7.61249 11 7.49999C10.7825 7.28249 10.7825 6.92249 11 6.70499L16.6025 1.10249C16.82 0.884987 17.18 0.884987 17.3975 1.10249C17.615 1.31999 17.615 1.67999 17.3975 1.89749L11.795 7.49999C11.6825 7.61249 11.54 7.66499 11.3975 7.66499Z" fill="#09080D"/>
</svg>
