<svg width="40" height="40" viewBox="0 0 40 40" fill="none" xmlns="http://www.w3.org/2000/svg">
<path d="M20 30.81C19.31 30.81 18.66 30.46 18.2 29.85L16.7 27.85C16.67 27.81 16.55 27.76 16.5 27.75H16C11.83 27.75 9.25 26.62 9.25 21V16C9.25 11.58 11.58 9.25 16 9.25H24C28.42 9.25 30.75 11.58 30.75 16V21C30.75 25.42 28.42 27.75 24 27.75H23.5C23.42 27.75 23.35 27.79 23.3 27.85L21.8 29.85C21.34 30.46 20.69 30.81 20 30.81ZM16 10.75C12.42 10.75 10.75 12.42 10.75 16V21C10.75 25.52 12.3 26.25 16 26.25H16.5C17.01 26.25 17.59 26.54 17.9 26.95L19.4 28.95C19.75 29.41 20.25 29.41 20.6 28.95L22.1 26.95C22.43 26.51 22.95 26.25 23.5 26.25H24C27.58 26.25 29.25 24.58 29.25 21V16C29.25 12.42 27.58 10.75 24 10.75H16Z" fill="#09080D"/>
<path d="M20 20C19.44 20 19 19.55 19 19C19 18.45 19.45 18 20 18C20.55 18 21 18.45 21 19C21 19.55 20.56 20 20 20Z" fill="#09080D"/>
<path d="M24 20C23.44 20 23 19.55 23 19C23 18.45 23.45 18 24 18C24.55 18 25 18.45 25 19C25 19.55 24.56 20 24 20Z" fill="#09080D"/>
<path d="M16 20C15.44 20 15 19.55 15 19C15 18.45 15.45 18 16 18C16.55 18 17 18.45 17 19C17 19.55 16.56 20 16 20Z" fill="#09080D"/>
</svg>
