<svg width="40" height="40" viewBox="0 0 40 40" fill="none" xmlns="http://www.w3.org/2000/svg">
<path d="M17.1596 19.62C17.1296 19.62 17.1096 19.62 17.0796 19.62C17.0296 19.61 16.9596 19.61 16.8996 19.62C13.9996 19.53 11.8096 17.25 11.8096 14.44C11.8096 11.58 14.1396 9.25 16.9996 9.25C19.8596 9.25 22.1896 11.58 22.1896 14.44C22.1796 17.25 19.9796 19.53 17.1896 19.62C17.1796 19.62 17.1696 19.62 17.1596 19.62ZM16.9996 10.75C14.9696 10.75 13.3096 12.41 13.3096 14.44C13.3096 16.44 14.8696 18.05 16.8596 18.12C16.9196 18.11 17.0496 18.11 17.1796 18.12C19.1396 18.03 20.6796 16.42 20.6896 14.44C20.6896 12.41 19.0296 10.75 16.9996 10.75Z" fill="#09080D"/>
<path d="M24.5394 19.75C24.5094 19.75 24.4794 19.75 24.4494 19.74C24.0394 19.78 23.6194 19.49 23.5794 19.08C23.5394 18.67 23.7894 18.3 24.1994 18.25C24.3194 18.24 24.4494 18.24 24.5594 18.24C26.0194 18.16 27.1594 16.96 27.1594 15.49C27.1594 13.97 25.9294 12.74 24.4094 12.74C23.9994 12.75 23.6594 12.41 23.6594 12C23.6594 11.59 23.9994 11.25 24.4094 11.25C26.7494 11.25 28.6594 13.16 28.6594 15.5C28.6594 17.8 26.8594 19.66 24.5694 19.75C24.5594 19.75 24.5494 19.75 24.5394 19.75Z" fill="#09080D"/>
<path d="M17.1696 30.55C15.2096 30.55 13.2396 30.05 11.7496 29.05C10.3596 28.13 9.59961 26.87 9.59961 25.5C9.59961 24.13 10.3596 22.86 11.7496 21.93C14.7496 19.94 19.6096 19.94 22.5896 21.93C23.9696 22.85 24.7396 24.11 24.7396 25.48C24.7396 26.85 23.9796 28.12 22.5896 29.05C21.0896 30.05 19.1296 30.55 17.1696 30.55ZM12.5796 23.19C11.6196 23.83 11.0996 24.65 11.0996 25.51C11.0996 26.36 11.6296 27.18 12.5796 27.81C15.0696 29.48 19.2696 29.48 21.7596 27.81C22.7196 27.17 23.2396 26.35 23.2396 25.49C23.2396 24.64 22.7096 23.82 21.7596 23.19C19.2696 21.53 15.0696 21.53 12.5796 23.19Z" fill="#09080D"/>
<path d="M26.3397 28.75C25.9897 28.75 25.6797 28.51 25.6097 28.15C25.5297 27.74 25.7897 27.35 26.1897 27.26C26.8197 27.13 27.3997 26.88 27.8497 26.53C28.4197 26.1 28.7297 25.56 28.7297 24.99C28.7297 24.42 28.4197 23.88 27.8597 23.46C27.4197 23.12 26.8697 22.88 26.2197 22.73C25.8197 22.64 25.5597 22.24 25.6497 21.83C25.7397 21.43 26.1397 21.17 26.5497 21.26C27.4097 21.45 28.1597 21.79 28.7697 22.26C29.6997 22.96 30.2297 23.95 30.2297 24.99C30.2297 26.03 29.6897 27.02 28.7597 27.73C28.1397 28.21 27.3597 28.56 26.4997 28.73C26.4397 28.75 26.3897 28.75 26.3397 28.75Z" fill="#09080D"/>
</svg>
