<svg width="40" height="40" viewBox="0 0 40 40" fill="none" xmlns="http://www.w3.org/2000/svg">
<path d="M13.1499 30.75C12.7399 30.75 12.3999 30.41 12.3999 30V10C12.3999 9.59 12.7399 9.25 13.1499 9.25C13.5599 9.25 13.8999 9.59 13.8999 10V30C13.8999 30.41 13.5599 30.75 13.1499 30.75Z" fill="#09080D"/>
<path d="M24.3499 24.75H13.1499C12.7399 24.75 12.3999 24.41 12.3999 24C12.3999 23.59 12.7399 23.25 13.1499 23.25H24.3499C25.4399 23.25 25.9499 22.96 26.0499 22.71C26.1499 22.46 25.9999 21.9 25.2199 21.13L24.0199 19.93C23.5299 19.5 23.2299 18.85 23.1999 18.13C23.1699 17.37 23.4699 16.62 24.0199 16.07L25.2199 14.87C25.9599 14.13 26.1899 13.53 26.0799 13.27C25.9699 13.01 25.3999 12.75 24.3499 12.75H13.1499C12.7299 12.75 12.3999 12.41 12.3999 12C12.3999 11.59 12.7399 11.25 13.1499 11.25H24.3499C26.5399 11.25 27.2399 12.16 27.4699 12.7C27.6899 13.24 27.8399 14.38 26.2799 15.94L25.0799 17.14C24.8299 17.39 24.6899 17.74 24.6999 18.09C24.7099 18.39 24.8299 18.66 25.0399 18.85L26.2799 20.08C27.8099 21.61 27.6599 22.75 27.4399 23.3C27.2099 23.83 26.4999 24.75 24.3499 24.75Z" fill="#09080D"/>
</svg>
